<svg width="20" height="21" viewBox="0 0 20 21" fill="none" xmlns="http://www.w3.org/2000/svg">
<path fill-rule="evenodd" clip-rule="evenodd" d="M18.5 2.75H11V1.25C11 0.835786 10.6642 0.5 10.25 0.5C9.83579 0.5 9.5 0.835786 9.5 1.25V2.75H2C1.17157 2.75 0.5 3.42157 0.5 4.25V15.5C0.5 16.3284 1.17157 17 2 17H5.69L3.66406 19.5312C3.40518 19.8549 3.45765 20.3271 3.78125 20.5859C4.10485 20.8448 4.57705 20.7924 4.83594 20.4688L7.61 17H12.89L15.6641 20.4688C15.9229 20.7924 16.3951 20.8448 16.7188 20.5859C17.0424 20.3271 17.0948 19.8549 16.8359 19.5312L14.81 17H18.5C19.3284 17 20 16.3284 20 15.5V4.25C20 3.42157 19.3284 2.75 18.5 2.75ZM18.5 15.5H2V4.25H18.5V15.5ZM8 10.25V12.5C8 12.9142 7.66421 13.25 7.25 13.25C6.83579 13.25 6.5 12.9142 6.5 12.5V10.25C6.5 9.83579 6.83579 9.5 7.25 9.5C7.66421 9.5 8 9.83579 8 10.25ZM11 8.75V12.5C11 12.9142 10.6642 13.25 10.25 13.25C9.83579 13.25 9.5 12.9142 9.5 12.5V8.75C9.5 8.33579 9.83579 8 10.25 8C10.6642 8 11 8.33579 11 8.75ZM14 7.25V12.5C14 12.9142 13.6642 13.25 13.25 13.25C12.8358 13.25 12.5 12.9142 12.5 12.5V7.25C12.5 6.83579 12.8358 6.5 13.25 6.5C13.6642 6.5 14 6.83579 14 7.25Z" fill="#638782"/>
</svg>
