<svg width="20" height="22" viewBox="0 0 20 22" fill="none" xmlns="http://www.w3.org/2000/svg">
<path fill-rule="evenodd" clip-rule="evenodd" d="M19.22 5.20156L10.97 0.6875C10.5219 0.439919 9.97808 0.439919 9.53 0.6875L1.28 5.20344C0.800138 5.46599 0.501242 5.96894 0.5 6.51594V15.4822C0.501242 16.0292 0.800138 16.5321 1.28 16.7947L9.53 21.3106C9.97808 21.5582 10.5219 21.5582 10.97 21.3106L19.22 16.7947C19.6999 16.5321 19.9988 16.0292 20 15.4822V6.51687C19.9998 5.96887 19.7007 5.4646 19.22 5.20156ZM10.25 2L17.7819 6.125L14.9909 7.65312L7.45813 3.52812L10.25 2ZM10.25 10.25L2.71812 6.125L5.89625 4.385L13.4281 8.51L10.25 10.25ZM2 7.4375L9.5 11.5419V19.5847L2 15.4831V7.4375ZM18.5 15.4794L11 19.5847V11.5456L14 9.90406V13.25C14 13.6642 14.3358 14 14.75 14C15.1642 14 15.5 13.6642 15.5 13.25V9.08281L18.5 7.4375V15.4784V15.4794Z" fill="#638782"/>
</svg>
