<svg width="20" height="18" viewBox="0 0 20 18" fill="none" xmlns="http://www.w3.org/2000/svg">
<path fill-rule="evenodd" clip-rule="evenodd" d="M18 0.75H1.5C0.671573 0.75 0 1.42157 0 2.25V16.5C0.00013876 16.7599 0.134828 17.0012 0.355974 17.1378C0.577121 17.2743 0.853196 17.2866 1.08562 17.1703L3.75 15.8381L6.41438 17.1703C6.62564 17.276 6.87436 17.276 7.08562 17.1703L9.75 15.8381L12.4144 17.1703C12.6256 17.276 12.8744 17.276 13.0856 17.1703L15.75 15.8381L18.4144 17.1703C18.6468 17.2866 18.9229 17.2743 19.144 17.1378C19.3652 17.0012 19.4999 16.7599 19.5 16.5V2.25C19.5 1.42157 18.8284 0.75 18 0.75ZM14.25 10.5H5.25C4.83579 10.5 4.5 10.1642 4.5 9.75C4.5 9.33579 4.83579 9 5.25 9H14.25C14.6642 9 15 9.33579 15 9.75C15 10.1642 14.6642 10.5 14.25 10.5ZM14.25 7.5H5.25C4.83579 7.5 4.5 7.16421 4.5 6.75C4.5 6.33579 4.83579 6 5.25 6H14.25C14.6642 6 15 6.33579 15 6.75C15 7.16421 14.6642 7.5 14.25 7.5Z" fill="#121717"/>
</svg>
